PathFileType	4	(X/Y/Z)	/Users/itak/Documents/Research/Walk-IL/dataset/trc/00121_00007.trc
DataRate	CameraRate	NumFrames	NumMarkers	Units	OrigDataRate	OrigDataStartFrame	OrigNumFrames
100.000000	100.000000	4	53	mm	100.000000	451	722
Frame#	Time	RPSI			LPSI			L3			STRN			T10			C7			CLAV			RBAK			LBAK			LSHO			LUPA			LAEL			LAOL			LWTS			LWPS			LFRA			LIFD			LHPS			LHTS			RSHO			RUPA			RAEL			RAOL			RWTS			RWPS			RFRA			RIFD			RHTS			RHPS			RBHD			LFHD			RFHD			LBHD			LHIP			RHIP			RASI			LASI			LKNE			LTHI			LANK			LTIP			LTOE			LMT1			LMT5			LHEE			RKNE			RTHI			RANK			RTIP			RTOE			RMT1			RMT5			RHEE			
		X1	Y1	Z1	X2	Y2	Z2	X3	Y3	Z3	X4	Y4	Z4	X5	Y5	Z5	X6	Y6	Z6	X7	Y7	Z7	X8	Y8	Z8	X9	Y9	Z9	X10	Y10	Z10	X11	Y11	Z11	X12	Y12	Z12	X13	Y13	Z13	X14	Y14	Z14	X15	Y15	Z15	X16	Y16	Z16	X17	Y17	Z17	X18	Y18	Z18	X19	Y19	Z19	X20	Y20	Z20	X21	Y21	Z21	X22	Y22	Z22	X23	Y23	Z23	X24	Y24	Z24	X25	Y25	Z25	X26	Y26	Z26	X27	Y27	Z27	X28	Y28	Z28	X29	Y29	Z29	X30	Y30	Z30	X31	Y31	Z31	X32	Y32	Z32	X33	Y33	Z33	X34	Y34	Z34	X35	Y35	Z35	X36	Y36	Z36	X37	Y37	Z37	X38	Y38	Z38	X39	Y39	Z39	X40	Y40	Z40	X41	Y41	Z41	X42	Y42	Z42	X43	Y43	Z43	X44	Y44	Z44	X45	Y45	Z45	X46	Y46	Z46	X47	Y47	Z47	X48	Y48	Z48	X49	Y49	Z49	X50	Y50	Z50	X51	Y51	Z51	X52	Y52	Z52	X53	Y53	Z53	

452	4.51	-490.0402221679688	1111.13134765625	-753.2430419921875	-379.4768981933594	1097.382446289062	-675.097412109375	-427.2856140136719	1142.1318359375	-716.6531372070312	-554.7664794921875	1340.725952148438	-528.8114624023438	-408.1173095703125	1294.682495117188	-734.1100463867188	-409.4728698730469	1586.678955078125	-687.8671264648438	-527.7168579101562	1475.979248046875	-550.6546630859375	-452.0624694824219	1408.716796875	-791.9254150390625	-324.2476806640625	1562.3525390625	-634.2708740234375	-323.4484558105469	1542.911865234375	-524.0765991210938	-251.8042144775391	1413.041870117188	-506.7503662109375	-232.116943359375	1194.909545898438	-497.0440979003906	-235.4407348632812	1188.2060546875	-585.1919555664062	-324.9187316894531	935.0445556640625	-455.5616760253906	-254.7251281738281	911.050048828125	-504.793701171875	-236.6085205078125	1078.125854492188	-487.0860290527344	-352.4404907226562	744.4923095703125	-470.0218200683594	-273.4936218261719	834.9498291015625	-485.3101806640625	-326.1035461425781	844.4934692382812	-440.9921569824219	-588.447265625	1576.593017578125	-753.39208984375	-629.6687622070312	1507.678100585938	-809.980224609375	-654.3792724609375	1219.3583984375	-859.4845581054688	-576.1775512695312	1208.64990234375	-804.8860473632812	-748.11328125	971.0175170898438	-763.85986328125	-725.284423828125	960.5074462890625	-842.3562622070312	-685.5093383789062	1147.421997070312	-858.0674438476562	-757.63037109375	775.3864135742188	-751.3261108398438	-777.0330810546875	862.6641235351562	-755.2803344726562	-757.2232666015625	860.5321044921875	-826.3194580078125	-510.4093627929688	1777.084350585938	-657.9071044921875	-454.4070739746094	1782.268676757812	-444.0989990234375	-569.5913696289062	1810.916137695312	-492.4636535644531	-386.4319763183594	1753.938232421875	-612.193359375	-355.2505798339844	999.7510375976562	-536.6878051757812	-668.5931396484375	1035.933837890625	-722.0559692382812	-665.7810668945312	1098.6025390625	-621.8842163085938	-448.1104736328125	1072.956176757812	-473.5195922851562	-510.4219665527344	501.1531372070312	-473.5027770996094	-445.3866882324219	645.5623779296875	-494.242431640625	-211.5619201660156	208.7132568359375	-814.5082397460938	-333.7002868652344	369.19482421875	-634.5795288085938	-359.0173645019531	32.9264030456543	-839.2039794921875	-346.9032592773438	112.8901062011719	-861.0134887695312	-252.7245635986328	87.37317657470703	-807.1952514648438	-228.7482452392578	289.6792907714844	-853.1094360351562	-730.826416015625	552.4297485351562	-638.4454956054688	-714.7784423828125	829.752197265625	-682.3925170898438	-721.8103637695312	21.94083976745605	-682.9930419921875	-746.8197021484375	415.6909484863281	-656.7144775390625	-796.2860717773438	61.85830307006836	-459.3612976074219	-729.8314819335938	54.10129165649414	-486.8722534179688	-808.2197265625	34.73173904418945	-578.63134765625	-650.5084228515625	28.9590892791748	-704.5272216796875	
453	4.52	-496.3683166503906	1112.251708984375	-747.8619995117188	-385.0421447753906	1098.7216796875	-671.0057373046875	-433.292724609375	1143.737915039062	-712.3032836914062	-559.3231201171875	1341.972534179688	-522.1173095703125	-416.1861877441406	1296.456665039062	-729.3729248046875	-416.9187316894531	1588.5888671875	-682.5728759765625	-532.685302734375	1477.367431640625	-543.6679077148438	-461.1036987304688	1410.936645507812	-786.4098510742188	-330.5682678222656	1564.408325195312	-630.7050170898438	-328.0778198242188	1544.505859375	-520.4493408203125	-255.7289733886719	1414.692626953125	-505.0303955078125	-235.1839141845703	1196.669311523438	-496.7314147949219	-240.6122894287109	1190.19775390625	-584.8286743164062	-326.5420227050781	936.6113891601562	-453.6416320800781	-257.5944519042969	912.7691650390625	-504.6673278808594	-239.2108306884766	1079.82763671875	-486.9982604980469	-353.8514709472656	746.0679931640625	-467.2007751464844	-275.6303100585938	836.6624145507812	-484.7062377929688	-327.1822814941406	846.1771850585938	-439.0460815429688	-597.227783203125	1578.650146484375	-744.9498901367188	-639.5735473632812	1509.780639648438	-800.8037719726562	-666.0411376953125	1221.430541992188	-849.6979370117188	-585.989990234375	1210.830932617188	-797.4049072265625	-757.35205078125	972.9498291015625	-752.030517578125	-736.512939453125	962.6002807617188	-831.205810546875	-697.12158203125	1149.524780273438	-847.5567626953125	-766.17724609375	777.1815185546875	-739.8062133789062	-785.8165283203125	864.4523315429688	-742.984130859375	-767.8499755859375	862.5226440429688	-814.5870971679688	-517.6073608398438	1778.529174804688	-650.3720092773438	-458.6271667480469	1783.314453125	-437.3500061035156	-574.4531860351562	1811.98876953125	-484.1195983886719	-392.966064453125	1755.40380859375	-606.455810546875	-360.00634765625	1001.134948730469	-532.1337890625	-674.66943359375	1037.147216796875	-715.5709838867188	-671.4740600585938	1100.048095703125	-615.338623046875	-452.4787902832031	1074.554809570312	-468.7742004394531	-522.4733276367188	505.5662841796875	-459.0853576660156	-455.1185913085938	648.567138671875	-483.28515625	-229.4771118164062	211.5960235595703	-802.921875	-348.8682861328125	372.6911010742188	-622.38427734375	-378.0501098632812	35.82371520996094	-820.539794921875	-365.6709594726562	114.9075698852539	-845.1139526367188	-271.0353088378906	91.09444427490234	-790.9034423828125	-246.4757232666016	291.1924438476562	-843.94189453125	-733.5804443359375	552.09814453125	-636.9287719726562	-719.6777954101562	830.3272705078125	-677.4584350585938	-721.8910522460938	21.89920425415039	-683.0660400390625	-748.7176513671875	415.4375	-655.9140014648438	-796.8524780273438	62.1866340637207	-459.7584838867188	-730.2095336914062	54.42216873168945	-486.9874877929688	-808.4172973632812	34.58764266967773	-578.8224487304688	-650.532958984375	28.96453666687012	-704.5555419921875	
454	4.53	-502.5043640136719	1113.319580078125	-742.393310546875	-390.4693908691406	1100.078369140625	-666.81640625	-439.159423828125	1145.299560546875	-707.9051513671875	-563.8282470703125	1343.161743164062	-515.4588012695312	-423.8899536132812	1298.176635742188	-724.6235961914062	-424.1358642578125	1590.385498046875	-677.2142333984375	-537.541748046875	1478.682495117188	-536.7200317382812	-469.8370971679688	1413.051635742188	-780.800048828125	-336.8301391601562	1566.34033203125	-626.9277954101562	-332.6461486816406	1546.0078125	-516.7415161132812	-259.6531982421875	1416.24853515625	-503.2154846191406	-238.2280120849609	1198.35205078125	-496.4847717285156	-245.790771484375	1192.1337890625	-584.478271484375	-328.0671691894531	938.1305541992188	-451.8030700683594	-260.566650390625	914.4014282226562	-504.7131652832031	-241.8043365478516	1081.446411132812	-487.0174255371094	-355.2277526855469	747.5614013671875	-464.3730163574219	-277.7615966796875	838.3092041015625	-484.2150573730469	-328.154052734375	847.8092041015625	-437.1956481933594	-605.6500854492188	1580.567993164062	-736.5625	-649.083984375	1511.770141601562	-791.6875610351562	-677.437744140625	1223.390502929688	-839.8280639648438	-595.546142578125	1212.957763671875	-789.8767700195312	-766.5303344726562	974.8992309570312	-740.08349609375	-747.6442260742188	964.640869140625	-819.8501586914062	-708.4942016601562	1151.529663085938	-836.9436645507812	-774.841796875	779.0072631835938	-728.04931640625	-794.5956420898438	866.2761840820312	-730.508056640625	-778.4570922851562	864.4861450195312	-802.6148681640625	-524.60498046875	1779.917358398438	-642.8126220703125	-462.6766662597656	1784.23779296875	-430.6130981445312	-579.1277465820312	1812.9208984375	-475.7977905273438	-399.3371276855469	1756.8154296875	-600.7007446289062	-364.6569519042969	1002.563415527344	-527.47314453125	-680.5697631835938	1038.223510742188	-709.1552124023438	-677.0609741210938	1101.352661132812	-608.8610229492188	-456.8001098632812	1076.086059570312	-463.9442749023438	-533.8460693359375	510.21484375	-444.8755493164062	-464.2640075683594	651.7304077148438	-472.4512329101562	-247.7694396972656	213.0617980957031	-790.7219848632812	-363.8520202636719	375.8034973144531	-610.3230590820312	-398.3704528808594	38.50851440429688	-800.2747802734375	-385.0682067871094	116.0885162353516	-828.1138305664062	-290.3277282714844	93.93089294433594	-773.2079467773438	-264.1899719238281	291.0596618652344	-834.673095703125	-736.2032470703125	551.7398681640625	-635.4010009765625	-724.4472045898438	830.8674926757812	-672.4930419921875	-721.9541015625	21.87505340576172	-683.1222534179688	-750.4981689453125	415.1854248046875	-655.0636596679688	-797.4853515625	62.47954940795898	-460.1799011230469	-730.6713256835938	54.68972015380859	-487.1018371582031	-808.6486206054688	34.42970275878906	-579.0380859375	-650.5445556640625	28.98785400390625	-704.5797119140625	
455	4.54	-508.5018920898438	1114.358764648438	-736.8466186523438	-395.7684936523438	1101.455322265625	-662.541748046875	-444.9412536621094	1146.800659179688	-703.4435424804688	-568.2933349609375	1344.27392578125	-508.8091125488281	-431.271484375	1299.823486328125	-719.8439331054688	-431.140625	1592.057373046875	-671.78125	-542.3033447265625	1479.901000976562	-529.799560546875	-478.295654296875	1415.032836914062	-775.0936279296875	-343.0849914550781	1568.098754882812	-622.9102172851562	-337.1654663085938	1547.393676757812	-512.9391479492188	-263.5944213867188	1417.69287109375	-501.2706604003906	-241.2793884277344	1199.940185546875	-496.2335510253906	-250.9512634277344	1193.996948242188	-584.0724487304688	-329.5313720703125	939.5671997070312	-450.0492553710938	-263.6226501464844	915.9246215820312	-504.8703918457031	-244.4153289794922	1082.966186523438	-487.0762023925781	-356.5960998535156	748.9502563476562	-461.6322937011719	-279.9063415527344	839.8598022460938	-483.8216857910156	-329.0797729492188	849.3421020507812	-435.4708557128906	-613.7341918945312	1582.331909179688	-728.2340087890625	-658.212158203125	1513.622436523438	-782.6434326171875	-688.5283813476562	1225.21484375	-829.9102783203125	-604.8897705078125	1214.978881835938	-782.2681274414062	-775.6329956054688	976.8564453125	-728.031982421875	-758.6492919921875	966.6119995117188	-808.3001708984375	-719.59033203125	1153.411865234375	-826.2619018554688	-783.6673583984375	780.871337890625	-716.0210571289062	-803.3938598632812	868.1473388671875	-717.8485717773438	-789.0404052734375	866.41796875	-790.397705078125	-531.406982421875	1781.234008789062	-635.239013671875	-466.5538635253906	1785.04541015625	-423.8984375	-583.6271362304688	1813.718017578125	-467.4720153808594	-405.5487060546875	1758.158325195312	-594.9365844726562	-369.2344665527344	1004.005249023438	-522.7279052734375	-686.3359375	1039.171020507812	-702.7743530273438	-682.5527954101562	1102.503784179688	-602.4074096679688	-461.0758056640625	1077.532470703125	-459.0349731445312	-544.5177612304688	515.0260009765625	-430.8919372558594	-472.8076477050781	655.0133056640625	-461.7339172363281	-266.3505249023438	213.1915130615234	-777.9376831054688	-378.6029663085938	378.435302734375	-598.3400268554688	-419.4220886230469	40.78971862792969	-778.481689453125	-404.8888549804688	116.3943557739258	-809.9986572265625	-310.1920471191406	95.92803192138672	-754.3324584960938	-282.0039672851562	289.3698120117188	-825.178955078125	-738.6943359375	551.3602294921875	-633.8770751953125	-729.129150390625	831.4021606445312	-667.4301147460938	-721.9904174804688	21.87749671936035	-683.1550903320312	-752.14697265625	414.9304809570312	-654.18359375	-798.1743774414062	62.70537567138672	-460.6021118164062	-731.2001342773438	54.88064956665039	-487.2025756835938	-808.9058227539062	34.26447296142578	-579.2671508789062	-650.5375366210938	29.02968788146973	-704.6019287109375	
